<svg width="24.000000" height="24.000000" viewBox="0 0 24 24" fill="none" xmlns="http://www.w3.org/2000/svg" xmlns:xlink="http://www.w3.org/1999/xlink">
	<desc>
			Created with Pixso.
	</desc>
	<defs/>
	<rect id="add_box_24px" rx="0.000000" width="23.000000" height="23.000000" transform="translate(0.500000 0.500000)" fill="#FFFFFF" fill-opacity="0"/>
	<path id="icon/content/add_box_24px" d="M5 3L19 3C20.1001 3 21 3.90002 21 5L21 19C21 20.1 20.1001 21 19 21L5 21C3.89014 21 3 20.1 3 19L3 5C3 3.90002 3.89014 3 5 3ZM13 13L16 13C16.5498 13 17 12.55 17 12C17 11.45 16.5498 11 16 11L13 11L13 8C13 7.45001 12.5498 7 12 7C11.4502 7 11 7.45001 11 8L11 11L8 11C7.4502 11 7 11.45 7 12C7 12.55 7.4502 13 8 13L11 13L11 16C11 16.55 11.4502 17 12 17C12.5498 17 13 16.55 13 16L13 13Z" clip-rule="evenodd" fill="#FFFFFF" fill-opacity="1.000000" fill-rule="evenodd"/>
</svg>
