<svg width="143.308105" height="90.799988" viewBox="0 0 143.308 90.8" fill="none" xmlns="http://www.w3.org/2000/svg" xmlns:xlink="http://www.w3.org/1999/xlink">
	<desc>
			Created with Pixso.
	</desc>
	<defs/>
	<path id="Vector" d="M105.92 0.06C85.3 0.06 68.5 16.83 68.5 37.47C68.5 38.95 68.53 40.12 68.66 41.38C67.58 41.26 66.47 41.13 65.36 41.04L65.36 0L20.35 0L20.35 26.52L1.24 26.52C0.72 26.52 0.26 26.86 0.07 27.32C-0.11 27.78 0.04 28.36 0.44 28.67L13.89 40.61L13.89 57.53L5.64 57.53C4.96 57.53 4.41 58.09 4.41 58.76C4.41 59.44 4.96 60 5.64 60L13.89 60L13.98 77.44L0.47 88.64C0.07 88.98 -0.08 89.53 0.1 90C0.29 90.46 0.75 90.8 1.27 90.8L20.96 90.8C21.21 90.8 21.46 90.73 21.67 90.58L39.55 78.76C50.16 78.67 60.84 78.27 71.12 77.01C78.56 76.12 85.52 74.27 92.04 72.49C96.63 74.4 100.9 74.83 105.89 74.83C126.5 74.83 143.3 58.06 143.3 37.41C143.3 16.76 126.53 0.06 105.92 0.06ZM91.27 5.72C90.01 8.24 88.84 11.69 90.38 13.84C92.16 16.3 97.92 16.06 98.29 16.15C99.92 16.55 102.44 18.49 103 21.04C103.52 23.53 102.04 26.18 98.75 28.7C98.26 29.07 97.4 28.98 96.44 28.89C95.24 28.76 93.89 28.64 92.84 29.53C92.13 30.15 91.77 31.1 91.73 32.43C91.73 32.52 92.04 35.56 91.83 36.12C91.61 36.03 91.18 35.78 90.41 35.1C89.52 34.27 85.61 32.21 83.4 33.53C82.53 34.06 81.64 35.23 82.35 37.81C82.56 38.64 83.03 39.07 83.83 39.2C84.04 39.23 84.66 39.32 86.38 41.01C86.44 41.13 87.18 43.6 88.32 44.21C89.09 44.61 90.01 44.64 91.15 44.33C93.15 44.4 96.47 44.58 97.55 44.89C98.1 45.07 98.1 45.07 98.53 45.72C98.78 46.12 99.09 46.61 99.58 47.32C94.1 45.6 87.67 44.15 80.41 42.95C76.23 40.03 71.58 36.06 71.27 34.64C71.24 34.52 71.21 34.4 71.15 34.3C72.23 21.6 80.2 10.86 91.27 5.72ZM75.21 42.18C73.89 42 72.53 41.81 71.15 41.66C71 40.55 70.96 39.56 70.93 38.4C72.2 39.69 73.76 41.01 75.21 42.18ZM37.46 2.46L48.26 2.46L48.26 17.84L37.46 17.84L37.46 2.46ZM22.81 2.46L35 2.46L35 20.3L50.72 20.3L50.72 2.46L62.9 2.46L62.9 40.8C59.55 40.49 56.1 40.21 52.47 40C48.01 39.72 42.47 38.67 38.44 38.55L22.81 27.56L22.81 2.46ZM4.66 29.04L20.6 29.04L34.56 38.43L16.16 38.43L4.66 29.04ZM20.6 88.27L4.66 88.27L16.2 78.83L34.6 78.83L20.6 88.27ZM24.41 76.33C21.77 76.4 19.03 76.33 16.32 76.33L16.35 60L19.73 60C20.41 60 20.96 59.44 20.96 58.76C20.96 58.09 20.41 57.53 19.73 57.53L16.35 57.53L16.35 41.01C25.49 40.76 84.81 40.58 110.1 54.27L118.47 58.8L110.1 63.2C70.35 78.8 56.01 75.66 24.41 76.33ZM105.92 72.4C102.38 72.4 99.27 72.18 96.13 71.35C103 69.19 104.1 69.16 110.1 65.93L121.64 59.9C122.04 59.69 122.29 59.29 122.29 58.83C122.29 58.36 122.04 57.96 121.64 57.75L111.27 52.12C109.09 50.92 106.63 49.84 103.89 48.8C101.89 46.46 101.12 45.2 100.63 44.43C99.98 43.38 99.67 42.95 98.29 42.52C96.5 41.96 90.78 41.87 90.66 41.9C90.04 42.09 89.67 42.09 89.52 42.03C89.3 41.9 89.15 41.35 89.03 40.95C88.84 40.36 88.66 39.75 88.2 39.29C86.5 37.63 85.49 37.07 84.69 36.86C84.53 36.09 84.63 35.72 84.72 35.66C85.4 35.26 88.04 36.24 88.78 36.92C89.43 37.5 91.36 39.29 93.06 38.36C94.87 37.35 94.5 33.96 94.23 32.4C94.26 31.81 94.38 31.5 94.5 31.38C94.75 31.16 95.61 31.26 96.23 31.32C97.46 31.44 99.03 31.6 100.29 30.64C105.46 26.67 105.95 22.92 105.43 20.52C104.63 16.76 101.15 14.27 98.9 13.72C98.2 13.53 93.33 13.66 92.38 12.33C91.36 10.95 93.3 6.7 94.93 4.21C98.38 3.07 102.07 2.46 105.89 2.46C113.98 2.46 121.46 5.23 127.4 9.87C126.97 11.53 124.93 17.78 118.04 21.01C117.89 21.07 117.49 21.16 117.18 21.23C116.04 21.44 114.5 21.75 114.04 23.2C113.67 24.27 114.1 25.5 115.43 27.2C114.72 27.72 113.95 28.49 113.61 29.56C113.18 30.89 113.49 32.3 114.53 33.78C114.63 33.93 114.75 34.15 114.87 34.4C115.3 35.26 115.98 36.55 117.4 36.58C118.93 36.64 120.53 35.1 122.87 31.32C123.73 31.2 125.4 30.89 128.35 30.06C129.12 31.81 130.17 34.89 129.24 36.52C129.09 36.83 128.57 37.72 126.35 37.78L112.97 41.16C111 42.12 110.13 44.55 110.72 47.56C111.3 50.58 113.49 53.9 116.81 54.12C117.43 54.15 119.77 54.55 121.52 54.86L125.77 66.21C120.1 70.12 113.27 72.4 105.92 72.4ZM127.8 64.67L123.58 53.35C123.43 52.95 123.09 52.64 122.66 52.58C122.2 52.49 118.07 51.75 116.97 51.69C115.03 51.56 113.58 49.32 113.15 47.13C112.84 45.66 113.03 43.93 114.04 43.44L126.47 40.33C128.84 40.24 130.53 39.41 131.43 37.81C133.43 34.3 130.47 28.7 130.13 28.06C129.86 27.53 129.27 27.29 128.72 27.47C123.83 28.92 122.17 29.01 122.17 29.01C121.73 29.01 121.37 29.26 121.15 29.6C118.93 33.29 117.92 34.03 117.61 34.15C117.46 33.96 115.86 30.95 116.04 30.36C116.32 29.5 117.43 28.89 117.83 28.76C118.23 28.61 118.5 28.3 118.6 27.9C118.69 27.5 118.6 27.07 118.32 26.8C116.72 25.04 116.47 24.27 116.44 24.09C116.69 23.93 118.72 23.53 119.15 23.32C125.92 20.15 128.57 14.52 129.52 11.69C136.5 18.09 140.9 27.29 140.9 37.47C140.84 48.43 135.77 58.24 127.8 64.67Z" fill="#111111" fill-opacity="1.000000" fill-rule="nonzero"/>
</svg>
