<svg width="24.000000" height="24.000000" viewBox="0 0 24 24" fill="none" xmlns="http://www.w3.org/2000/svg" xmlns:xlink="http://www.w3.org/1999/xlink">
	<desc>
			Created with Pixso.
	</desc>
	<defs/>
	<rect id="file_copy_24px" rx="0.000000" width="23.000000" height="23.000000" transform="translate(0.500000 0.500000)" fill="#FFFFFF" fill-opacity="0"/>
	<path id="icon/content/file_copy_24px" d="M4.5 1L15.5 1C16.0498 1 16.5 1.45001 16.5 2C16.5 2.54999 16.0498 3 15.5 3L5.5 3C4.9502 3 4.5 3.45001 4.5 4L4.5 16C4.5 16.55 4.0498 17 3.5 17C2.9502 17 2.5 16.55 2.5 16L2.5 3C2.5 1.90002 3.3999 1 4.5 1ZM16.0898 5.59003L20.9199 10.42C21.29 10.79 21.5 11.3 21.5 11.83L21.5 21C21.5 22.1 20.6001 23 19.5 23L8.49023 23C7.39014 23 6.5 22.1 6.5 21L6.50977 7C6.50977 5.90002 7.3999 5 8.5 5L14.6699 5C15.2002 5 15.71 5.21002 16.0898 5.59003ZM20 12L15.5 12C14.9502 12 14.5 11.55 14.5 11L14.5 6.5L20 12Z" clip-rule="evenodd" fill="#FFFFFF" fill-opacity="1.000000" fill-rule="evenodd"/>
</svg>
