<svg width="24.000000" height="24.000000" viewBox="0 0 24 24" fill="none" xmlns="http://www.w3.org/2000/svg" xmlns:xlink="http://www.w3.org/1999/xlink">
	<desc>
			Created with Pixso.
	</desc>
	<defs/>
	<rect id="gps_fixed_24px" rx="0.000000" width="23.000000" height="23.000000" transform="translate(0.500000 0.500000)" fill="#FFFFFF" fill-opacity="0"/>
	<path id="icon/device/gps_fixed_24px" d="M20.9399 11C20.48 6.83002 17.1699 3.52002 13 3.06L13 2C13 1.45001 12.5498 1 12 1C11.4502 1 11 1.45001 11 2L11 3.06C6.83008 3.52002 3.52002 6.83002 3.06006 11L2 11C1.4502 11 1 11.45 1 12C1 12.55 1.4502 13 2 13L3.06006 13C3.52002 17.17 6.83008 20.48 11 20.94L11 22C11 22.55 11.4502 23 12 23C12.5498 23 13 22.55 13 22L13 20.94C17.1699 20.48 20.48 17.17 20.9399 13L22 13C22.5498 13 23 12.55 23 12C23 11.45 22.5498 11 22 11L20.9399 11ZM5 12C5 15.87 8.12988 19 12 19C15.8701 19 19 15.87 19 12C19 8.13 15.8701 5 12 5C8.12988 5 5 8.13 5 12ZM12 8C9.79004 8 8 9.78998 8 12C8 14.21 9.79004 16 12 16C14.21 16 16 14.21 16 12C16 9.78998 14.21 8 12 8Z" clip-rule="evenodd" fill="#FFFFFF" fill-opacity="1.000000" fill-rule="evenodd"/>
</svg>
