<svg width="138.000000" height="111.000000" viewBox="0 0 138 111" fill="none" xmlns="http://www.w3.org/2000/svg" xmlns:xlink="http://www.w3.org/1999/xlink">
	<desc>
			Created with Pixso.
	</desc>
	<defs/>
	<path id="Vector" d="M137.57 66.62L129.96 56.01C129.74 55.74 129.42 55.55 129.07 55.55L126.99 55.55L126.99 1.07C126.99 0.48 126.5 0 125.91 0L74.21 0C73.61 0 73.13 0.48 73.13 1.07L73.13 25.35L13.12 25.35C12.79 25.35 12.47 25.51 12.28 25.75L0.24 40.78C0.05 41.03 -0.03 41.35 0.02 41.65C0.02 41.7 0 41.75 0 41.81L0 109.92C0 110.51 0.48 111 1.08 111L86.46 111L136.89 111C137.49 111 137.97 110.51 137.97 109.92L137.97 68C138.08 67.73 137.76 66.76 137.57 66.62ZM128.53 57.73L134.76 66.41L121.21 66.41L121.21 57.73L128.53 57.73ZM75.29 2.15L124.83 2.15L124.83 7.05L75.29 7.05L75.29 2.15ZM53.29 27.5C53.29 27.5 73.88 27.48 74.15 27.5L84.25 40.35L53.29 40.35L53.29 27.5ZM36.41 27.5L51.13 27.5L51.13 40.35L36.41 40.35L36.41 27.5ZM36.41 42.51L51.13 42.51L51.13 58.14L36.41 58.14L36.41 42.51ZM13.63 27.5L34.25 27.5L34.25 40.35L3.32 40.35L13.63 27.5ZM85.38 108.84L2.15 108.84L2.15 42.51L34.25 42.51L34.25 59.21C34.25 59.81 34.74 60.29 35.33 60.29L52.21 60.29C52.8 60.29 53.29 59.81 53.29 59.21L53.29 42.51L85.38 42.51L85.38 108.84ZM87.33 40.78L75.31 25.78L75.31 9.21L124.83 9.21L124.83 48.98C124.48 48.98 123.88 48.92 122.99 48.81L114.27 47.82C113.57 47.74 113 47.22 112.87 46.58C112.79 46.12 112.92 45.8 113.33 45.42C113.38 45.36 113.97 44.93 114.95 45.15L119.18 45.58C119.7 45.53 120.13 45.15 120.26 44.69C120.53 43.8 119.75 43.13 119.51 42.91C118.91 42.37 110.49 34 105.61 29.12C105.31 28.82 105.17 28.42 105.25 28.04C105.28 27.85 105.39 27.69 105.52 27.56C105.85 27.23 106.39 27.15 106.82 27.39C107.04 27.5 107.25 27.66 107.47 27.88C108.49 28.9 117.46 37.77 118.4 38.68C118.62 38.95 118.97 39.11 119.35 39.09C120.18 39.01 120.35 38.23 120.4 37.85C120.59 37.58 121.29 36.96 121.99 36.47C122.42 36.18 122.61 35.64 122.42 35.18C122.15 34.51 121.37 34.32 120.8 34.67C119.99 35.21 119.4 35.72 118.97 36.2C116.84 34.1 112.03 29.33 109.92 27.26L110.33 25.89C110.33 25.46 110.11 25.05 109.76 24.81C109.44 24.59 109.09 24.49 108.71 24.49L94.97 24.49L94.7 23.25C94.64 22.71 94.19 22.3 93.62 22.3L91.03 22.3C90.51 22.3 90.03 22.65 89.92 23.16C89.79 23.87 90.3 24.46 90.97 24.46L92.7 24.46L94.46 32.65C94.56 33.11 94.94 33.46 95.4 33.48L96.37 33.51C95.91 34.08 95.67 34.83 95.78 35.64C95.94 36.88 96.97 37.88 98.21 38.01C99.88 38.2 101.31 36.88 101.31 35.26C101.31 34.59 101.07 34 100.69 33.51L102.23 33.51C101.77 34.08 101.53 34.83 101.64 35.64C101.8 36.88 102.82 37.88 104.07 38.01C105.74 38.2 107.17 36.88 107.17 35.26C107.17 34.59 106.93 34 106.55 33.51L106.98 33.51C110.03 36.55 114.43 40.92 116.7 43.13L115.41 42.99C113.33 42.51 112.17 43.48 111.87 43.78C110.92 44.64 110.52 45.74 110.76 46.93C111.09 48.52 112.41 49.7 114.06 49.86L122.75 50.86C123.61 50.97 124.31 51.02 124.85 51.05L124.85 55.47L87.6 55.47L87.6 41.54C87.54 41.65 87.52 41.03 87.33 40.78ZM96.37 31.44L96.1 30.14L103.61 30.14C103.74 30.33 103.88 30.52 104.04 30.68C104.23 30.87 104.5 31.14 104.8 31.44L96.37 31.44ZM98.34 35.96C98.13 35.91 97.94 35.72 97.88 35.5C97.78 35.05 98.18 34.64 98.64 34.75C98.86 34.8 99.04 34.99 99.1 35.21C99.23 35.67 98.83 36.07 98.34 35.96ZM95.64 27.99L95.37 26.69L103.5 26.69C103.34 26.99 103.2 27.29 103.12 27.64C103.09 27.75 103.07 27.88 103.07 27.99L95.64 27.99ZM103.77 35.18C103.82 34.97 104.01 34.78 104.23 34.72C104.69 34.62 105.09 35.02 104.98 35.48C104.93 35.69 104.74 35.88 104.53 35.94C104.07 36.07 103.63 35.67 103.77 35.18ZM104.34 66.41L104.34 58.05L119.05 58.05L119.05 66.41L104.34 66.41ZM119.05 68.53L119.05 77.21L104.34 77.21L104.34 68.53L119.05 68.53ZM102.18 57.73L102.18 66.41L87.54 66.41L87.54 57.73L102.18 57.73ZM135.84 108.84L87.54 108.84L87.54 68.53L102.18 68.53L102.18 78.29C102.18 78.88 102.66 79.37 103.26 79.37L120.13 79.37C120.72 79.37 121.21 78.88 121.21 78.29L121.21 68.53L135.84 68.53L135.84 108.84Z" fill="#111111" fill-opacity="1.000000" fill-rule="nonzero"/>
	<path id="Vector" d="M68.97 70.96C68.97 71.55 69.46 72.04 70.05 72.04C70.64 72.04 71.13 71.55 71.13 70.96L71.13 61.05L75.42 61.05L70.05 51.75L64.68 61.05L68.97 61.05L68.97 70.96Z" fill="#111111" fill-opacity="1.000000" fill-rule="nonzero"/>
	<path id="Vector" d="M127.01 86.69C127.01 87.29 127.5 87.77 128.09 87.77C128.69 87.77 129.17 87.29 129.17 86.69L129.17 81.44L131.33 81.44L128.09 75.86L124.85 81.44L127.01 81.44L127.01 86.69Z" fill="#111111" fill-opacity="1.000000" fill-rule="nonzero"/>
	<path id="Vector" d="M27.5 92.67L6.04 92.67C5.45 92.67 4.96 93.16 4.96 93.75L4.96 104.93C4.96 105.53 5.45 106.01 6.04 106.01L27.5 106.01C28.1 106.01 28.58 105.53 28.58 104.93L28.58 93.75C28.58 93.16 28.1 92.67 27.5 92.67ZM26.42 103.86L7.12 103.86L7.12 94.83L26.42 94.83L26.42 103.86Z" fill="#111111" fill-opacity="1.000000" fill-rule="nonzero"/>
	<path id="Vector" d="M106.79 95.83L91.46 95.83C90.86 95.83 90.38 96.31 90.38 96.9L90.38 104.88C90.38 105.47 90.86 105.96 91.46 105.96L106.79 105.96C107.39 105.96 107.87 105.47 107.87 104.88L107.87 96.9C107.87 96.31 107.39 95.83 106.79 95.83ZM105.71 103.83L92.54 103.83L92.54 98.01L105.71 98.01L105.71 103.83Z" fill="#111111" fill-opacity="1.000000" fill-rule="nonzero"/>
	<path id="Vector" d="M111.41 3.58L88.68 3.58C88.43 3.58 88.25 3.77 88.25 4.01L88.25 5.22C88.25 5.46 88.43 5.65 88.68 5.65L111.41 5.65C111.65 5.65 111.84 5.46 111.84 5.22L111.84 4.01C111.84 3.77 111.65 3.58 111.41 3.58Z" fill="#111111" fill-opacity="1.000000" fill-rule="nonzero"/>
	<path id="Vector" d="M100.69 43.64C101.66 43.64 103.15 43.37 104.23 43.13L104.23 47.41L102.66 46.52L105.31 52.96L107.95 46.52L106.39 47.41L106.39 41.84C106.39 41.27 105.98 40.76 105.42 40.7C105.25 40.68 105.09 40.7 104.96 40.76C104.96 40.76 102.15 41.49 100.69 41.49C93.67 41.49 87.98 35.8 87.98 28.8C87.98 21.79 93.67 16.11 100.69 16.11C105.69 16.11 110.22 19.04 112.27 23.57C112.52 24.11 113.16 24.35 113.7 24.11C114.24 23.87 114.49 23.22 114.24 22.68C111.84 17.37 106.52 13.95 100.69 13.95C92.48 13.95 85.82 20.61 85.82 28.8C85.82 36.99 92.48 43.64 100.69 43.64Z" fill="#111111" fill-opacity="1.000000" fill-rule="nonzero"/>
</svg>
