<svg width="157.291992" height="93.507690" viewBox="0 0 157.292 93.5077" fill="none" xmlns="http://www.w3.org/2000/svg" xmlns:xlink="http://www.w3.org/1999/xlink">
	<desc>
			Created with Pixso.
	</desc>
	<defs/>
	<path id="Vector" d="M157.29 69.96C157.29 65.47 153.66 61.78 149.16 61.78C144.67 61.78 140.98 65.47 140.98 69.96C140.98 71.6 141.47 73.16 142.36 74.52L146.42 85.66C145.41 86.46 144.73 87.72 144.73 89.1C144.73 91.53 146.7 93.5 149.13 93.5C151.56 93.5 153.53 91.53 153.53 89.1C153.53 87.75 152.92 86.52 151.93 85.72L156.18 74.49C156.92 73.29 157.29 71.38 157.29 69.96ZM153.78 73.5L149.19 86.09L144.64 73.5C144.61 73.41 143.44 71.13 143.44 69.93C143.44 66.8 146.03 64.21 149.16 64.21C152.3 64.21 154.83 66.8 154.83 69.93C154.83 70.98 153.81 73.44 153.78 73.5Z" fill="#111111" fill-opacity="1.000000" fill-rule="nonzero"/>
	<path id="Vector" d="M149.13 65.5C146.67 65.5 144.67 67.5 144.67 69.96C144.67 72.43 146.67 74.43 149.13 74.43C151.6 74.43 153.6 72.43 153.6 69.96C153.6 67.5 151.6 65.5 149.13 65.5ZM149.13 71.96C148.03 71.96 147.13 71.07 147.13 69.96C147.13 68.86 148.03 67.96 149.13 67.96C150.24 67.96 151.13 68.86 151.13 69.96C151.13 71.07 150.24 71.96 149.13 71.96Z" fill="#111111" fill-opacity="1.000000" fill-rule="nonzero"/>
	<path id="Vector" d="M140.73 87.87L144.39 87.87L144.39 90.33L140.73 90.33L140.73 87.87Z" fill="#111111" fill-opacity="1.000000" fill-rule="evenodd"/>
	<path id="Vector" d="M139.1 57.07L128.73 41.13C128.52 40.8 128.12 40.58 127.72 40.58L111.23 40.58L111.23 18.27C111.23 17.6 110.36 17.04 109.69 17.04L44.49 17.04C43.78 7.53 35.81 0 26.12 0C23.75 0 21.32 0.36 19.13 1.1C18.49 1.32 18.15 2.03 18.36 2.64C18.58 3.29 19.29 3.63 19.9 3.41C21.84 2.76 23.99 2.43 26.12 2.43C34.92 2.43 42.09 9.6 42.09 18.4C42.09 27.2 34.92 34.36 26.12 34.36C19.59 34.36 13.38 29.26 11.04 21.93C10.83 21.29 10.15 20.92 9.5 21.13C8.86 21.35 8.49 22.03 8.7 22.67C11.38 30.98 18.64 36.8 26.21 36.8L26.21 75.66C26.21 76.33 26.76 76.89 27.44 76.89L34.83 76.89C34.83 81.66 37.59 85.78 41.56 87.81L38.39 87.81L38.39 90.27L42.03 90.27L42.03 88.06C43.16 88.58 44.39 88.92 45.69 89.07L45.69 90.3L49.35 90.3L49.35 88.95C55.01 87.87 59.32 82.92 59.35 76.95L78.15 76.95C78.18 81.72 80.92 85.84 84.89 87.84L82.24 87.84L82.24 90.3L85.9 90.3L85.9 88.3C87.04 88.76 88.27 89.04 89.56 89.13L89.56 90.3L93.23 90.3L93.23 88.83C98.64 87.56 102.7 82.7 102.7 76.92L138.06 76.92C138.73 76.92 139.29 76.36 139.29 75.69L139.29 57.69C139.29 57.5 139.23 57.29 139.1 57.07ZM47.07 86.73C41.66 86.73 37.26 82.33 37.26 76.92C37.26 71.5 41.66 67.1 47.07 67.1C52.49 67.1 56.89 71.5 56.89 76.92C56.89 82.33 52.49 86.73 47.07 86.73ZM90.43 86.73C85.01 86.73 80.61 82.33 80.61 76.92C80.61 71.5 85.01 67.1 90.43 67.1C95.84 67.1 100.24 71.5 100.24 76.92C100.24 82.33 95.84 86.73 90.43 86.73ZM108.7 74.52L102.49 74.52C101.35 68.92 96.39 64.67 90.46 64.67C84.52 64.67 79.53 68.92 78.43 74.55L59.16 74.55C58.03 68.92 53.07 64.67 47.13 64.67C41.19 64.67 36.21 68.92 35.1 74.52L28.67 74.52L28.67 36.7C37.29 35.5 44.03 28.33 44.52 19.5L108.7 19.5L108.7 74.52ZM136.83 74.43L111.16 74.43L111.16 43.04L127.01 43.04L136.83 58.12L136.83 74.43Z" fill="#111111" fill-opacity="1.000000" fill-rule="nonzero"/>
	<path id="Vector" d="M133.44 87.87L137.1 87.87L137.1 90.33L133.44 90.33L133.44 87.87Z" fill="#111111" fill-opacity="1.000000" fill-rule="evenodd"/>
	<path id="Vector" d="M113.01 44.92L113.01 65.16L131.9 65.16L131.9 54.15L126.06 44.92L113.01 44.92ZM129.44 62.58L115.47 62.58L115.47 47.26L124.7 47.26L129.44 54.73L129.44 62.58Z" fill="#111111" fill-opacity="1.000000" fill-rule="nonzero"/>
	<path id="Vector" d="M126.12 87.87L129.78 87.87L129.78 90.33L126.12 90.33L126.12 87.87Z" fill="#111111" fill-opacity="1.000000" fill-rule="evenodd"/>
	<path id="Vector" d="M118.8 87.87L122.46 87.87L122.46 90.33L118.8 90.33L118.8 87.87Z" fill="#111111" fill-opacity="1.000000" fill-rule="evenodd"/>
	<path id="Vector" d="M111.5 87.87L115.16 87.87L115.16 90.33L111.5 90.33L111.5 87.87Z" fill="#111111" fill-opacity="1.000000" fill-rule="evenodd"/>
	<path id="Vector" d="M104.18 87.87L107.84 87.87L107.84 90.33L104.18 90.33L104.18 87.87Z" fill="#111111" fill-opacity="1.000000" fill-rule="evenodd"/>
	<path id="Vector" d="M96.89 87.87L100.55 87.87L100.55 90.33L96.89 90.33L96.89 87.87Z" fill="#111111" fill-opacity="1.000000" fill-rule="evenodd"/>
	<path id="Vector" d="M74.95 87.87L78.61 87.87L78.61 90.33L74.95 90.33L74.95 87.87Z" fill="#111111" fill-opacity="1.000000" fill-rule="evenodd"/>
	<path id="Vector" d="M67.63 87.87L71.29 87.87L71.29 90.33L67.63 90.33L67.63 87.87Z" fill="#111111" fill-opacity="1.000000" fill-rule="evenodd"/>
	<path id="Vector" d="M60.3 87.87L63.96 87.87L63.96 90.33L60.3 90.33L60.3 87.87Z" fill="#111111" fill-opacity="1.000000" fill-rule="evenodd"/>
	<path id="Vector" d="M53.01 87.87L56.67 87.87L56.67 90.33L53.01 90.33L53.01 87.87Z" fill="#111111" fill-opacity="1.000000" fill-rule="evenodd"/>
	<path id="Vector" d="M39.26 18.46L32.64 14.64L32.64 17.23L27.38 17.23C26.7 17.23 26.15 17.78 26.15 18.46L26.15 24.92L23.56 24.92L27.38 31.53L31.19 24.92L28.61 24.92L28.61 19.69L32.64 19.69L32.64 22.27L39.26 18.46Z" fill="#111111" fill-opacity="1.000000" fill-rule="nonzero"/>
	<path id="Vector" d="M31.07 87.87L34.73 87.87L34.73 90.33L31.07 90.33L31.07 87.87Z" fill="#111111" fill-opacity="1.000000" fill-rule="evenodd"/>
	<path id="Vector" d="M26.12 87.87L27.99 87.87L27.99 90.33L26.12 90.33L26.12 87.87Z" fill="#111111" fill-opacity="1.000000" fill-rule="evenodd"/>
	<path id="Vector" d="M12.61 8.61L21.96 8.61C22.64 8.61 23.29 7.99 23.29 7.32C23.29 6.64 22.73 6.09 22.06 6.09L12.7 6.09C12.03 6.09 11.47 6.64 11.47 7.32C11.47 7.96 11.93 8.61 12.61 8.61Z" fill="#111111" fill-opacity="1.000000" fill-rule="nonzero"/>
	<path id="Vector" d="M7.56 13.6L22.03 13.6C22.7 13.6 23.26 12.98 23.26 12.3C23.26 11.63 22.7 11.07 22.03 11.07L7.56 11.07C6.89 11.07 6.33 11.63 6.33 12.3C6.33 12.98 6.89 13.6 7.56 13.6Z" fill="#111111" fill-opacity="1.000000" fill-rule="nonzero"/>
	<path id="Vector" d="M23.26 17.32C23.26 16.64 22.7 16.09 22.03 16.09L1.23 16.09C0.55 16.09 0 16.64 0 17.32C0 18 0.55 18.61 1.23 18.61L22.03 18.61C22.7 18.61 23.26 18 23.26 17.32Z" fill="#111111" fill-opacity="1.000000" fill-rule="nonzero"/>
</svg>
