<svg width="157.621094" height="88.276917" viewBox="0 0 157.621 88.2769" fill="none" xmlns="http://www.w3.org/2000/svg" xmlns:xlink="http://www.w3.org/1999/xlink">
	<desc>
			Created with Pixso.
	</desc>
	<defs/>
	<path id="Vector" d="M156.41 64.7L156.11 64.7C156.75 64.64 157.25 64.12 157.25 63.47L157.25 28.4C157.25 23.26 153.06 19.1 147.95 19.1L123.4 19.1C118.26 19.1 114.11 23.29 114.11 28.4L114.11 63.5C114.11 64.15 114.6 64.67 115.25 64.73L112.11 64.73C112.75 64.67 113.25 64.15 113.25 63.5L113.25 1.23C113.25 0.55 112.69 0 112.02 0L18.26 0C17.58 0 17.03 0.55 17.03 1.23L17.03 63.47L0.23 86.3C-0.17 86.86 -0.05 87.63 0.51 88.03C0.72 88.18 0.97 88.27 1.25 88.27C1.61 88.27 1.98 88.09 2.23 87.78L19.15 64.73L21.28 64.73L21.28 85.93C21.28 86.61 21.83 87.16 22.51 87.16L51.37 87.16L57.18 87.16L77.52 87.16C78.2 87.16 78.75 86.61 78.75 85.93L78.75 64.73L94.88 64.73C94.23 64.8 93.74 65.32 93.74 65.96L93.74 69.9C93.74 70.58 94.29 71.13 94.97 71.13L118.2 71.13C118.17 71.5 118.17 71.87 118.17 72.24C118.17 80.55 124.94 87.29 133.21 87.29C141.49 87.29 148.26 80.52 148.26 72.24C148.26 71.87 148.23 71.5 148.23 71.13L156.38 71.13C157.06 71.13 157.62 70.58 157.62 69.9L157.62 65.96C157.64 65.26 157.09 64.7 156.41 64.7ZM116.54 28.4C116.54 24.61 119.62 21.56 123.37 21.56L147.92 21.56C151.71 21.56 154.75 24.64 154.75 28.4L154.75 62.27L144.51 62.27C141.74 59.16 137.71 57.2 133.25 57.2C128.75 57.2 124.72 59.16 121.95 62.3C121.92 62.3 121.89 62.3 121.86 62.3L116.51 62.3L116.51 28.4L116.54 28.4ZM43.95 55.81L43.95 63.2L35.74 63.2L35.74 55.81L43.95 55.81ZM34.51 65.66L45.18 65.66C45.86 65.66 46.41 65.1 46.41 64.43L46.41 55.81L55.95 55.81L55.95 58.52L51.37 58.52C50.69 58.52 50.14 59.07 50.14 59.75L50.14 84.67L23.74 84.67L23.74 55.81L33.28 55.81L33.28 64.43C33.28 65.1 33.83 65.66 34.51 65.66ZM76.29 84.67L57.18 84.67L52.6 84.67L52.6 60.98L59.37 60.98L59.37 69.81C59.37 70.49 59.92 71.04 60.6 71.04L68.29 71.04C68.97 71.04 69.52 70.49 69.52 69.81L69.52 60.98L76.29 60.98L76.29 84.67ZM67.06 61.13L67.06 68.58L61.83 68.58L61.83 61.13L67.06 61.13ZM77.52 58.52L58.41 58.52L58.41 54.58C58.41 53.9 57.86 53.35 57.18 53.35L22.51 53.35C21.83 53.35 21.28 53.9 21.28 54.58L21.28 62.27L19.49 62.27L19.49 51.23L20.38 51.23C21.06 51.23 21.61 50.67 21.61 50C21.61 49.32 21.06 48.76 20.38 48.76L19.49 48.76L19.49 2.46L110.75 2.46L110.75 48.76L109.86 48.76C109.18 48.76 108.63 49.32 108.63 50C108.63 50.67 109.18 51.23 109.86 51.23L110.75 51.23L110.75 62.27L78.75 62.27L78.75 59.78C78.75 59.07 78.2 58.52 77.52 58.52ZM96.2 68.67L96.2 67.19L119.06 67.19C118.88 67.69 118.75 68.18 118.63 68.67L96.2 68.67ZM133.21 84.83C126.26 84.83 120.63 79.16 120.63 72.24C120.63 65.32 126.29 59.66 133.21 59.66C140.14 59.66 145.8 65.32 145.8 72.24C145.8 79.16 140.17 84.83 133.21 84.83ZM155.18 68.67L147.86 68.67C147.74 68.18 147.58 67.69 147.43 67.19L155.18 67.19L155.18 68.67Z" fill="#111111" fill-opacity="1.000000" fill-rule="nonzero"/>
	<path id="Vector" d="M128.26 48.21L150.78 48.21C151.46 48.21 152.02 47.66 152.02 46.98L152.02 30.27C152.02 29.6 151.46 29.04 150.78 29.04L128.26 29.04C127.58 29.04 127.03 29.6 127.03 30.27L127.03 46.98C127.03 47.66 127.58 48.21 128.26 48.21ZM129.49 31.5L149.55 31.5L149.55 45.75L129.49 45.75L129.49 31.5Z" fill="#111111" fill-opacity="1.000000" fill-rule="nonzero"/>
	<path id="Vector" d="M133.22 65.9C129.71 65.9 126.88 68.73 126.88 72.24C126.88 75.75 129.71 78.58 133.22 78.58C136.72 78.58 139.55 75.75 139.55 72.24C139.55 68.73 136.72 65.9 133.22 65.9ZM133.22 76.12C131.06 76.12 129.34 74.36 129.34 72.24C129.34 70.12 131.09 68.36 133.22 68.36C135.34 68.36 137.09 70.12 137.09 72.24C137.09 74.36 135.37 76.12 133.22 76.12Z" fill="#111111" fill-opacity="1.000000" fill-rule="nonzero"/>
	<path id="Vector" d="M26.05 70.18L26.05 71.41C26.05 74.33 28.14 76.8 30.91 77.38L30.91 81.41L29.15 81.41C28.48 81.41 27.92 81.96 27.92 82.64C27.92 83.32 28.48 83.87 29.15 83.87L34.6 83.87C35.28 83.87 35.83 83.32 35.83 82.64C35.83 81.96 35.28 81.41 34.6 81.41L33.37 81.41L33.37 77.35C36.14 76.76 38.23 74.33 38.23 71.38L38.23 70.15C38.23 69.47 37.68 68.92 37 68.92L27.28 68.92C26.6 68.95 26.05 69.47 26.05 70.18ZM35.74 71.41C35.74 73.41 34.11 75.04 32.11 75.04C30.11 75.04 28.48 73.41 28.48 71.41L35.74 71.41Z" fill="#111111" fill-opacity="1.000000" fill-rule="nonzero"/>
	<path id="Vector" d="M64.51 75.38L55.31 75.38C54.63 75.38 54.08 75.93 54.08 76.61L54.08 82.21C54.08 82.89 54.63 83.44 55.31 83.44L64.51 83.44C65.18 83.44 65.74 82.89 65.74 82.21L65.74 76.61C65.74 75.93 65.18 75.38 64.51 75.38ZM63.28 80.98L56.54 80.98L56.54 77.84L63.28 77.84L63.28 80.98Z" fill="#111111" fill-opacity="1.000000" fill-rule="nonzero"/>
	<path id="Vector" d="M102.69 51.23L106.26 51.23C106.94 51.23 107.49 50.67 107.49 50C107.49 49.32 106.94 48.76 106.26 48.76L102.69 48.76C102.02 48.76 101.46 49.32 101.46 50C101.46 50.67 102.02 51.23 102.69 51.23Z" fill="#111111" fill-opacity="1.000000" fill-rule="nonzero"/>
	<path id="Vector" d="M56.17 48.76L52.6 48.76C51.92 48.76 51.37 49.32 51.37 50C51.37 50.67 51.92 51.23 52.6 51.23L56.17 51.23C56.85 51.23 57.4 50.67 57.4 50C57.4 49.32 56.85 48.76 56.17 48.76Z" fill="#111111" fill-opacity="1.000000" fill-rule="nonzero"/>
	<path id="Vector" d="M41.86 48.76L38.29 48.76C37.61 48.76 37.06 49.32 37.06 50C37.06 50.67 37.61 51.23 38.29 51.23L41.86 51.23C42.54 51.23 43.09 50.67 43.09 50C43.09 49.32 42.54 48.76 41.86 48.76Z" fill="#111111" fill-opacity="1.000000" fill-rule="nonzero"/>
	<path id="Vector" d="M77.65 48.76L74.08 48.76C73.4 48.76 72.85 49.32 72.85 50C72.85 50.67 73.4 51.23 74.08 51.23L77.65 51.23C78.32 51.23 78.88 50.67 78.88 50C78.88 49.32 78.32 48.76 77.65 48.76Z" fill="#111111" fill-opacity="1.000000" fill-rule="nonzero"/>
	<path id="Vector" d="M70.48 48.76L66.91 48.76C66.23 48.76 65.68 49.32 65.68 50C65.68 50.67 66.23 51.23 66.91 51.23L70.48 51.23C71.15 51.23 71.71 50.67 71.71 50C71.71 49.32 71.15 48.76 70.48 48.76Z" fill="#111111" fill-opacity="1.000000" fill-rule="nonzero"/>
	<path id="Vector" d="M63.31 48.76L59.74 48.76C59.06 48.76 58.51 49.32 58.51 50C58.51 50.67 59.06 51.23 59.74 51.23L63.31 51.23C63.98 51.23 64.54 50.67 64.54 50C64.54 49.32 63.98 48.76 63.31 48.76Z" fill="#111111" fill-opacity="1.000000" fill-rule="nonzero"/>
	<path id="Vector" d="M49.03 48.76L45.46 48.76C44.78 48.76 44.23 49.32 44.23 50C44.23 50.67 44.78 51.23 45.46 51.23L49.03 51.23C49.71 51.23 50.26 50.67 50.26 50C50.26 49.32 49.71 48.76 49.03 48.76Z" fill="#111111" fill-opacity="1.000000" fill-rule="nonzero"/>
	<path id="Vector" d="M95.52 51.23L99.12 51.23C99.8 51.23 100.35 50.67 100.35 49.99C100.35 49.32 99.8 48.76 99.12 48.76L95.55 48.76C94.88 48.76 94.32 49.32 94.32 49.99C94.32 50.67 94.85 51.23 95.52 51.23Z" fill="#111111" fill-opacity="1.000000" fill-rule="nonzero"/>
	<path id="Vector" d="M34.72 48.76L31.12 48.76C30.45 48.76 29.89 49.32 29.89 50C29.89 50.67 30.45 51.23 31.12 51.23L34.69 51.23C35.37 51.23 35.92 50.67 35.92 50C35.92 49.32 35.4 48.76 34.72 48.76Z" fill="#111111" fill-opacity="1.000000" fill-rule="nonzero"/>
	<path id="Vector" d="M88.38 51.23L91.95 51.23C92.63 51.23 93.18 50.67 93.18 50C93.18 49.32 92.63 48.76 91.95 48.76L88.38 48.76C87.71 48.76 87.15 49.32 87.15 50C87.15 50.67 87.71 51.23 88.38 51.23Z" fill="#111111" fill-opacity="1.000000" fill-rule="nonzero"/>
	<path id="Vector" d="M81.21 51.23L84.78 51.23C85.46 51.23 86.01 50.67 86.01 50C86.01 49.32 85.46 48.76 84.78 48.76L81.21 48.76C80.54 48.76 79.98 49.32 79.98 50C79.98 50.67 80.54 51.23 81.21 51.23Z" fill="#111111" fill-opacity="1.000000" fill-rule="nonzero"/>
	<path id="Vector" d="M27.55 48.76L23.98 48.76C23.31 48.76 22.75 49.32 22.75 50C22.75 50.67 23.31 51.23 23.98 51.23L27.55 51.23C28.23 51.23 28.78 50.67 28.78 50C28.78 49.32 28.23 48.76 27.55 48.76Z" fill="#111111" fill-opacity="1.000000" fill-rule="nonzero"/>
	<path id="Vector" d="M65.09 18.89C60.51 18.89 56.81 22.61 56.81 27.16C56.81 31.72 60.54 35.44 65.09 35.44C69.64 35.44 73.37 31.72 73.37 27.16C73.37 22.61 69.68 18.89 65.09 18.89ZM65.09 32.98C61.89 32.98 59.28 30.36 59.28 27.16C59.28 23.96 61.89 21.35 65.09 21.35C68.29 21.35 70.91 23.96 70.91 27.16C70.91 30.36 68.32 32.98 65.09 32.98Z" fill="#111111" fill-opacity="1.000000" fill-rule="nonzero"/>
	<path id="Vector" d="M65.09 13.38C57.49 13.38 51.31 19.56 51.31 27.16C51.31 32.49 54.38 37.32 59.15 39.59L64.01 48.03C64.23 48.4 64.63 48.64 65.09 48.64C65.55 48.64 65.95 48.4 66.17 48.03L71.03 39.59C75.8 37.32 78.88 32.46 78.88 27.16C78.88 19.56 72.69 13.38 65.09 13.38ZM69.68 37.53C69.43 37.63 69.25 37.81 69.12 38.06L65.12 44.98L61.12 38.06C61 37.84 60.78 37.66 60.57 37.53C56.48 35.72 53.8 31.66 53.8 27.16C53.8 20.92 58.88 15.84 65.12 15.84C71.37 15.84 76.45 20.92 76.45 27.16C76.41 31.66 73.77 35.72 69.68 37.53Z" fill="#111111" fill-opacity="1.000000" fill-rule="nonzero"/>
</svg>
